<svg xmlns="http://www.w3.org/2000/svg" viewBox="0 0 768 370">
  <rect width="768" height="370" fill="transparent"/>
  <g>
    <path d="M384,180 L384.000,21.000 A159,159 0 1,1 236.812,119.860 Z" fill="#3b9eff" stroke="rgba(26, 71, 114, 0.5)" stroke-width="1"/>
    <path d="M384,180 L236.812,119.860 A159,159 0 0,1 292.967,49.639 Z" fill="#ff801f" stroke="rgba(114, 57, 13, 0.5)" stroke-width="1"/>
    <path d="M384,180 L292.967,49.639 A159,159 0 0,1 355.841,23.513 Z" fill="#9a5cd0" stroke="rgba(69, 41, 93, 0.5)" stroke-width="1"/>
    <path d="M384,180 L355.841,23.513 A159,159 0 0,1 369.022,21.707 Z" fill="#33b074" stroke="rgba(22, 79, 52, 0.5)" stroke-width="1"/>
    <path d="M384,180 L369.022,21.707 A159,159 0 0,1 375.696,21.217 Z" fill="#de51a8" stroke="rgba(99, 36, 75, 0.5)" stroke-width="1"/>
    <path d="M384,180 L375.696,21.217 A159,159 0 0,1 380.769,21.033 Z" fill="#6e6ade" stroke="rgba(49, 47, 99, 0.5)" stroke-width="1"/>
    <path d="M384,180 L380.769,21.033 A159,159 0 0,1 383.077,21.003 Z" fill="#ffd60a" stroke="rgba(114, 96, 4, 0.5)" stroke-width="1"/>
    <path d="M384,180 L383.077,21.003 A159,159 0 0,1 384.000,21.000 Z" fill="#ec6142" stroke="rgba(106, 43, 29, 0.5)" stroke-width="1"/>
    <text x="428.327" y="245.995" text-anchor="middle" dominant-baseline="central" font-family="system-ui, -apple-system, sans-serif" font-size="12" fill="#eeeeee" stroke="#111111" stroke-width="2" paint-order="stroke">81,17%</text>
    <text x="321.911" y="130.349" text-anchor="middle" dominant-baseline="central" font-family="system-ui, -apple-system, sans-serif" font-size="12" fill="#eeeeee" stroke="#111111" stroke-width="2" paint-order="stroke">9,12%</text>
    <text x="353.495" y="106.586" text-anchor="middle" dominant-baseline="central" font-family="system-ui, -apple-system, sans-serif" font-size="12" fill="#eeeeee" stroke="#111111" stroke-width="2" paint-order="stroke">6,87%</text>
    <g opacity="1"><path fill="none" stroke="#777777" stroke-width="1" d="M476.556,317.802L485.477,331.084L509.477,331.084"/><text x="515.477" y="331.084" text-anchor="start" dominant-baseline="central" font-family="system-ui, -apple-system, sans-serif" font-size="12" fill="#eeeeee" stroke="#111111" stroke-width="2" paint-order="stroke">10.10.7</text></g>
    <g opacity="1"><path fill="none" stroke="#777777" stroke-width="1" d="M254.356,76.326L241.860,66.333L217.860,66.333"/><text x="211.860" y="66.333" text-anchor="end" dominant-baseline="central" font-family="system-ui, -apple-system, sans-serif" font-size="12" fill="#eeeeee" stroke="#111111" stroke-width="2" paint-order="stroke">10.10.3</text></g>
    <g opacity="1"><path fill="none" stroke="#777777" stroke-width="1" d="M320.303,26.707L314.164,11.932L290.164,11.932"/><text x="284.164" y="11.932" text-anchor="end" dominant-baseline="central" font-family="system-ui, -apple-system, sans-serif" font-size="12" fill="#eeeeee" stroke="#111111" stroke-width="2" paint-order="stroke">10.10.6</text></g>
  </g>
</svg>