<svg xmlns="http://www.w3.org/2000/svg" viewBox="0 0 768 370">
  <rect width="768" height="370" fill="transparent"/>
  <g>
    <path d="M384,180 L384.000,21.000 A159,159 0 1,1 231.016,136.679 Z" fill="#3b9eff" stroke="rgba(26, 71, 114, 0.5)" stroke-width="1"/>
    <path d="M384,180 L231.016,136.679 A159,159 0 0,1 285.641,55.074 Z" fill="#ff801f" stroke="rgba(114, 57, 13, 0.5)" stroke-width="1"/>
    <path d="M384,180 L285.641,55.074 A159,159 0 0,1 352.154,24.222 Z" fill="#9a5cd0" stroke="rgba(69, 41, 93, 0.5)" stroke-width="1"/>
    <path d="M384,180 L352.154,24.222 A159,159 0 0,1 368.924,21.716 Z" fill="#33b074" stroke="rgba(22, 79, 52, 0.5)" stroke-width="1"/>
    <path d="M384,180 L368.924,21.716 A159,159 0 0,1 375.300,21.238 Z" fill="#de51a8" stroke="rgba(99, 36, 75, 0.5)" stroke-width="1"/>
    <path d="M384,180 L375.300,21.238 A159,159 0 0,1 380.270,21.044 Z" fill="#6e6ade" stroke="rgba(49, 47, 99, 0.5)" stroke-width="1"/>
    <path d="M384,180 L380.270,21.044 A159,159 0 0,1 383.023,21.003 Z" fill="#ffd60a" stroke="rgba(114, 96, 4, 0.5)" stroke-width="1"/>
    <path d="M384,180 L383.023,21.003 A159,159 0 0,1 384.000,21.000 Z" fill="#ec6142" stroke="rgba(106, 43, 29, 0.5)" stroke-width="1"/>
    <text x="431.949" y="243.412" text-anchor="middle" dominant-baseline="central" font-family="system-ui, -apple-system, sans-serif" font-size="12" fill="#eeeeee" stroke="#111111" stroke-width="2" paint-order="stroke">79,39%</text>
    <text x="317.935" y="135.777" text-anchor="middle" dominant-baseline="central" font-family="system-ui, -apple-system, sans-serif" font-size="12" fill="#eeeeee" stroke="#111111" stroke-width="2" paint-order="stroke">9,99%</text>
    <text x="350.547" y="107.881" text-anchor="middle" dominant-baseline="central" font-family="system-ui, -apple-system, sans-serif" font-size="12" fill="#eeeeee" stroke="#111111" stroke-width="2" paint-order="stroke">7,41%</text>
    <g opacity="1"><path fill="none" stroke="#777777" stroke-width="1" d="M484.120,312.408L493.770,325.171L517.770,325.171"/><text x="523.770" y="325.171" text-anchor="start" dominant-baseline="central" font-family="system-ui, -apple-system, sans-serif" font-size="12" fill="#eeeeee" stroke="#111111" stroke-width="2" paint-order="stroke">10.10.7</text></g>
    <g opacity="1"><path fill="none" stroke="#777777" stroke-width="1" d="M246.053,87.660L232.757,78.759L208.757,78.759"/><text x="202.757" y="78.759" text-anchor="end" dominant-baseline="central" font-family="system-ui, -apple-system, sans-serif" font-size="12" fill="#eeeeee" stroke="#111111" stroke-width="2" paint-order="stroke">10.10.3</text></g>
    <g opacity="1"><path fill="none" stroke="#777777" stroke-width="1" d="M314.149,29.412L307.416,14.897L283.416,14.897"/><text x="277.416" y="14.897" text-anchor="end" dominant-baseline="central" font-family="system-ui, -apple-system, sans-serif" font-size="12" fill="#eeeeee" stroke="#111111" stroke-width="2" paint-order="stroke">10.10.6</text></g>
  </g>
</svg>