<svg xmlns="http://www.w3.org/2000/svg" viewBox="0 0 768 370">
  <rect width="768" height="370" fill="transparent"/>
  <g>
    <path d="M384,180 L384.000,21.000 A159,159 0 1,1 226.229,160.272 Z" fill="#3b9eff" stroke="rgba(26, 71, 114, 0.5)" stroke-width="1"/>
    <path d="M384,180 L226.229,160.272 A159,159 0 0,1 295.707,47.768 Z" fill="#ff801f" stroke="rgba(114, 57, 13, 0.5)" stroke-width="1"/>
    <path d="M384,180 L295.707,47.768 A159,159 0 0,1 319.323,34.749 Z" fill="#9a5cd0" stroke="rgba(69, 41, 93, 0.5)" stroke-width="1"/>
    <path d="M384,180 L319.323,34.749 A159,159 0 0,1 342.589,26.487 Z" fill="#33b074" stroke="rgba(22, 79, 52, 0.5)" stroke-width="1"/>
    <path d="M384,180 L342.589,26.487 A159,159 0 0,1 360.524,22.743 Z" fill="#de51a8" stroke="rgba(99, 36, 75, 0.5)" stroke-width="1"/>
    <path d="M384,180 L360.524,22.743 A159,159 0 0,1 374.488,21.285 Z" fill="#6e6ade" stroke="rgba(49, 47, 99, 0.5)" stroke-width="1"/>
    <path d="M384,180 L374.488,21.285 A159,159 0 0,1 384.000,21.000 Z" fill="#ffd60a" stroke="rgba(114, 96, 4, 0.5)" stroke-width="1"/>
    <text x="436.612" y="239.600" text-anchor="middle" dominant-baseline="central" font-family="system-ui, -apple-system, sans-serif" font-size="12" fill="#eeeeee" stroke="#111111" stroke-width="2" paint-order="stroke">76,98%</text>
    <text x="316.359" y="138.227" text-anchor="middle" dominant-baseline="central" font-family="system-ui, -apple-system, sans-serif" font-size="12" fill="#eeeeee" stroke="#111111" stroke-width="2" paint-order="stroke">13,65%</text>
    <text x="345.619" y="110.378" text-anchor="middle" dominant-baseline="central" font-family="system-ui, -apple-system, sans-serif" font-size="12" fill="#eeeeee" stroke="#111111" stroke-width="2" paint-order="stroke">2,70%</text>
    <text x="357.398" y="105.083" text-anchor="middle" dominant-baseline="central" font-family="system-ui, -apple-system, sans-serif" font-size="12" fill="#eeeeee" stroke="#111111" stroke-width="2" paint-order="stroke">2,47%</text>
    <g opacity="1"><path fill="none" stroke="#777777" stroke-width="1" d="M493.857,304.449L504.445,316.444L528.445,316.444"/><text x="534.445" y="316.444" text-anchor="start" dominant-baseline="central" font-family="system-ui, -apple-system, sans-serif" font-size="12" fill="#eeeeee" stroke="#111111" stroke-width="2" paint-order="stroke">10.11.6</text></g>
    <g opacity="1"><path fill="none" stroke="#777777" stroke-width="1" d="M242.762,92.777L229.149,84.370L205.149,84.370"/><text x="199.149" y="84.370" text-anchor="end" dominant-baseline="central" font-family="system-ui, -apple-system, sans-serif" font-size="12" fill="#eeeeee" stroke="#111111" stroke-width="2" paint-order="stroke">10.11.5</text></g>
    <g opacity="1"><path fill="none" stroke="#777777" stroke-width="1" d="M303.859,34.627L296.135,20.615L272.135,20.615"/><text x="266.135" y="20.615" text-anchor="end" dominant-baseline="central" font-family="system-ui, -apple-system, sans-serif" font-size="12" fill="#eeeeee" stroke="#111111" stroke-width="2" paint-order="stroke">10.11.4</text></g>
    <g opacity="1"><path fill="none" stroke="#777777" stroke-width="1" d="M328.453,23.569L323.099,8.492L299.099,8.492"/><text x="293.099" y="8.492" text-anchor="end" dominant-baseline="central" font-family="system-ui, -apple-system, sans-serif" font-size="12" fill="#eeeeee" stroke="#111111" stroke-width="2" paint-order="stroke">10.11.3</text></g>
  </g>
</svg>