<svg xmlns="http://www.w3.org/2000/svg" viewBox="0 0 768 370">
  <rect width="768" height="370" fill="transparent"/>
  <g>
    <path d="M384,180 L384.000,21.000 A159,159 0 1,1 234.871,124.849 Z" fill="#3b9eff" stroke="rgba(26, 71, 114, 0.5)" stroke-width="1"/>
    <path d="M384,180 L234.871,124.849 A159,159 0 0,1 291.230,50.869 Z" fill="#ff801f" stroke="rgba(114, 57, 13, 0.5)" stroke-width="1"/>
    <path d="M384,180 L291.230,50.869 A159,159 0 0,1 350.838,24.497 Z" fill="#9a5cd0" stroke="rgba(69, 41, 93, 0.5)" stroke-width="1"/>
    <path d="M384,180 L350.838,24.497 A159,159 0 0,1 367.908,21.816 Z" fill="#33b074" stroke="rgba(22, 79, 52, 0.5)" stroke-width="1"/>
    <path d="M384,180 L367.908,21.816 A159,159 0 0,1 374.738,21.270 Z" fill="#de51a8" stroke="rgba(99, 36, 75, 0.5)" stroke-width="1"/>
    <path d="M384,180 L374.738,21.270 A159,159 0 0,1 380.340,21.042 Z" fill="#6e6ade" stroke="rgba(49, 47, 99, 0.5)" stroke-width="1"/>
    <path d="M384,180 L380.340,21.042 A159,159 0 0,1 382.988,21.003 Z" fill="#ffd60a" stroke="rgba(114, 96, 4, 0.5)" stroke-width="1"/>
    <path d="M384,180 L382.988,21.003 A159,159 0 0,1 384.000,21.000 Z" fill="#ec6142" stroke="rgba(106, 43, 29, 0.5)" stroke-width="1"/>
    <text x="429.431" y="245.240" text-anchor="middle" dominant-baseline="central" font-family="system-ui, -apple-system, sans-serif" font-size="12" fill="#eeeeee" stroke="#111111" stroke-width="2" paint-order="stroke">80,64%</text>
    <text x="320.760" y="131.823" text-anchor="middle" dominant-baseline="central" font-family="system-ui, -apple-system, sans-serif" font-size="12" fill="#eeeeee" stroke="#111111" stroke-width="2" paint-order="stroke">9,45%</text>
    <text x="351.834" y="107.298" text-anchor="middle" dominant-baseline="central" font-family="system-ui, -apple-system, sans-serif" font-size="12" fill="#eeeeee" stroke="#111111" stroke-width="2" paint-order="stroke">6,57%</text>
    <g opacity="1"><path fill="none" stroke="#777777" stroke-width="1" d="M478.863,316.224L488.006,329.354L512.006,329.354"/><text x="518.006" y="329.354" text-anchor="start" dominant-baseline="central" font-family="system-ui, -apple-system, sans-serif" font-size="12" fill="#eeeeee" stroke="#111111" stroke-width="2" paint-order="stroke">10.10.7</text></g>
    <g opacity="1"><path fill="none" stroke="#777777" stroke-width="1" d="M251.953,79.404L239.225,69.708L215.225,69.708"/><text x="209.225" y="69.708" text-anchor="end" dominant-baseline="central" font-family="system-ui, -apple-system, sans-serif" font-size="12" fill="#eeeeee" stroke="#111111" stroke-width="2" paint-order="stroke">10.10.3</text></g>
    <g opacity="1"><path fill="none" stroke="#777777" stroke-width="1" d="M316.836,28.194L310.362,13.562L286.362,13.562"/><text x="280.362" y="13.562" text-anchor="end" dominant-baseline="central" font-family="system-ui, -apple-system, sans-serif" font-size="12" fill="#eeeeee" stroke="#111111" stroke-width="2" paint-order="stroke">10.10.6</text></g>
  </g>
</svg>