<svg xmlns="http://www.w3.org/2000/svg" viewBox="0 0 768 370">
  <rect width="768" height="370" fill="transparent"/>
  <g>
    <path d="M384,180 L384.000,21.000 A159,159 0 1,1 226.943,155.218 Z" fill="#3b9eff" stroke="rgba(26, 71, 114, 0.5)" stroke-width="1"/>
    <path d="M384,180 L226.943,155.218 A159,159 0 0,1 290.818,51.167 Z" fill="#ff801f" stroke="rgba(114, 57, 13, 0.5)" stroke-width="1"/>
    <path d="M384,180 L290.818,51.167 A159,159 0 0,1 323.625,32.909 Z" fill="#9a5cd0" stroke="rgba(69, 41, 93, 0.5)" stroke-width="1"/>
    <path d="M384,180 L323.625,32.909 A159,159 0 0,1 346.383,25.514 Z" fill="#33b074" stroke="rgba(22, 79, 52, 0.5)" stroke-width="1"/>
    <path d="M384,180 L346.383,25.514 A159,159 0 0,1 361.737,22.566 Z" fill="#de51a8" stroke="rgba(99, 36, 75, 0.5)" stroke-width="1"/>
    <path d="M384,180 L361.737,22.566 A159,159 0 0,1 374.989,21.256 Z" fill="#6e6ade" stroke="rgba(49, 47, 99, 0.5)" stroke-width="1"/>
    <path d="M384,180 L374.989,21.256 A159,159 0 0,1 384.000,21.000 Z" fill="#ffd60a" stroke="rgba(114, 96, 4, 0.5)" stroke-width="1"/>
    <text x="435.649" y="240.437" text-anchor="middle" dominant-baseline="central" font-family="system-ui, -apple-system, sans-serif" font-size="12" fill="#eeeeee" stroke="#111111" stroke-width="2" paint-order="stroke">77,49%</text>
    <text x="316.248" y="138.408" text-anchor="middle" dominant-baseline="central" font-family="system-ui, -apple-system, sans-serif" font-size="12" fill="#eeeeee" stroke="#111111" stroke-width="2" paint-order="stroke">12,54%</text>
    <text x="345.340" y="110.533" text-anchor="middle" dominant-baseline="central" font-family="system-ui, -apple-system, sans-serif" font-size="12" fill="#eeeeee" stroke="#111111" stroke-width="2" paint-order="stroke">3,77%</text>
    <text x="359.433" y="104.391" text-anchor="middle" dominant-baseline="central" font-family="system-ui, -apple-system, sans-serif" font-size="12" fill="#eeeeee" stroke="#111111" stroke-width="2" paint-order="stroke">2,40%</text>
    <g opacity="1"><path fill="none" stroke="#777777" stroke-width="1" d="M491.845,306.196L502.240,318.360L526.240,318.360"/><text x="532.240" y="318.360" text-anchor="start" dominant-baseline="central" font-family="system-ui, -apple-system, sans-serif" font-size="12" fill="#eeeeee" stroke="#111111" stroke-width="2" paint-order="stroke">10.11.6</text></g>
    <g opacity="1"><path fill="none" stroke="#777777" stroke-width="1" d="M242.530,93.155L228.894,84.784L204.894,84.784"/><text x="198.894" y="84.784" text-anchor="end" dominant-baseline="central" font-family="system-ui, -apple-system, sans-serif" font-size="12" fill="#eeeeee" stroke="#111111" stroke-width="2" paint-order="stroke">10.11.5</text></g>
    <g opacity="1"><path fill="none" stroke="#777777" stroke-width="1" d="M303.277,34.949L295.496,20.968L271.496,20.968"/><text x="265.496" y="20.968" text-anchor="end" dominant-baseline="central" font-family="system-ui, -apple-system, sans-serif" font-size="12" fill="#eeeeee" stroke="#111111" stroke-width="2" paint-order="stroke">10.11.4</text></g>
    <g opacity="1"><path fill="none" stroke="#777777" stroke-width="1" d="M332.702,22.125L327.757,6.908L303.757,6.908"/><text x="297.757" y="6.908" text-anchor="end" dominant-baseline="central" font-family="system-ui, -apple-system, sans-serif" font-size="12" fill="#eeeeee" stroke="#111111" stroke-width="2" paint-order="stroke">10.11.3</text></g>
  </g>
</svg>