<svg xmlns="http://www.w3.org/2000/svg" viewBox="0 0 768 370">
  <rect width="768" height="370" fill="transparent"/>
  <g>
    <path d="M384,180 L384.000,21.000 A159,159 0 1,1 234.219,126.646 Z" fill="#3b9eff" stroke="rgba(26, 71, 114, 0.5)" stroke-width="1"/>
    <path d="M384,180 L234.219,126.646 A159,159 0 0,1 287.461,53.662 Z" fill="#ff801f" stroke="rgba(114, 57, 13, 0.5)" stroke-width="1"/>
    <path d="M384,180 L287.461,53.662 A159,159 0 0,1 351.783,24.298 Z" fill="#9a5cd0" stroke="rgba(69, 41, 93, 0.5)" stroke-width="1"/>
    <path d="M384,180 L351.783,24.298 A159,159 0 0,1 367.203,21.890 Z" fill="#33b074" stroke="rgba(22, 79, 52, 0.5)" stroke-width="1"/>
    <path d="M384,180 L367.203,21.890 A159,159 0 0,1 373.944,21.318 Z" fill="#de51a8" stroke="rgba(99, 36, 75, 0.5)" stroke-width="1"/>
    <path d="M384,180 L373.944,21.318 A159,159 0 0,1 380.097,21.048 Z" fill="#6e6ade" stroke="rgba(49, 47, 99, 0.5)" stroke-width="1"/>
    <path d="M384,180 L380.097,21.048 A159,159 0 0,1 382.872,21.004 Z" fill="#ffd60a" stroke="rgba(114, 96, 4, 0.5)" stroke-width="1"/>
    <path d="M384,180 L382.872,21.004 A159,159 0 0,1 384.000,21.000 Z" fill="#ec6142" stroke="rgba(106, 43, 29, 0.5)" stroke-width="1"/>
    <text x="429.823" y="244.966" text-anchor="middle" dominant-baseline="central" font-family="system-ui, -apple-system, sans-serif" font-size="12" fill="#eeeeee" stroke="#111111" stroke-width="2" paint-order="stroke">80,45%</text>
    <text x="319.774" y="133.147" text-anchor="middle" dominant-baseline="central" font-family="system-ui, -apple-system, sans-serif" font-size="12" fill="#eeeeee" stroke="#111111" stroke-width="2" paint-order="stroke">9,17%</text>
    <text x="350.984" y="107.680" text-anchor="middle" dominant-baseline="central" font-family="system-ui, -apple-system, sans-serif" font-size="12" fill="#eeeeee" stroke="#111111" stroke-width="2" paint-order="stroke">7,14%</text>
    <g opacity="1"><path fill="none" stroke="#777777" stroke-width="1" d="M479.680,315.652L488.902,328.726L512.902,328.726"/><text x="518.902" y="328.726" text-anchor="start" dominant-baseline="central" font-family="system-ui, -apple-system, sans-serif" font-size="12" fill="#eeeeee" stroke="#111111" stroke-width="2" paint-order="stroke">10.10.7</text></g>
    <g opacity="1"><path fill="none" stroke="#777777" stroke-width="1" d="M249.892,82.168L236.966,72.738L212.966,72.738"/><text x="206.966" y="72.738" text-anchor="end" dominant-baseline="central" font-family="system-ui, -apple-system, sans-serif" font-size="12" fill="#eeeeee" stroke="#111111" stroke-width="2" paint-order="stroke">10.10.3</text></g>
    <g opacity="1"><path fill="none" stroke="#777777" stroke-width="1" d="M315.062,28.992L308.417,14.437L284.417,14.437"/><text x="278.417" y="14.437" text-anchor="end" dominant-baseline="central" font-family="system-ui, -apple-system, sans-serif" font-size="12" fill="#eeeeee" stroke="#111111" stroke-width="2" paint-order="stroke">10.10.6</text></g>
  </g>
</svg>