<svg xmlns="http://www.w3.org/2000/svg" viewBox="0 0 768 370">
  <rect width="768" height="370" fill="transparent"/>
  <g>
    <path d="M384,180 L384.000,21.000 A159,159 0 1,1 226.505,158.174 Z" fill="#3b9eff" stroke="rgba(26, 71, 114, 0.5)" stroke-width="1"/>
    <path d="M384,180 L226.505,158.174 A159,159 0 0,1 295.724,47.757 Z" fill="#ff801f" stroke="rgba(114, 57, 13, 0.5)" stroke-width="1"/>
    <path d="M384,180 L295.724,47.757 A159,159 0 0,1 319.652,34.603 Z" fill="#9a5cd0" stroke="rgba(69, 41, 93, 0.5)" stroke-width="1"/>
    <path d="M384,180 L319.652,34.603 A159,159 0 0,1 343.654,26.204 Z" fill="#33b074" stroke="rgba(22, 79, 52, 0.5)" stroke-width="1"/>
    <path d="M384,180 L343.654,26.204 A159,159 0 0,1 360.894,22.688 Z" fill="#de51a8" stroke="rgba(99, 36, 75, 0.5)" stroke-width="1"/>
    <path d="M384,180 L360.894,22.688 A159,159 0 0,1 374.972,21.257 Z" fill="#6e6ade" stroke="rgba(49, 47, 99, 0.5)" stroke-width="1"/>
    <path d="M384,180 L374.972,21.257 A159,159 0 0,1 384.000,21.000 Z" fill="#ffd60a" stroke="rgba(114, 96, 4, 0.5)" stroke-width="1"/>
    <text x="436.214" y="239.949" text-anchor="middle" dominant-baseline="central" font-family="system-ui, -apple-system, sans-serif" font-size="12" fill="#eeeeee" stroke="#111111" stroke-width="2" paint-order="stroke">77,19%</text>
    <text x="316.641" y="137.774" text-anchor="middle" dominant-baseline="central" font-family="system-ui, -apple-system, sans-serif" font-size="12" fill="#eeeeee" stroke="#111111" stroke-width="2" paint-order="stroke">13,44%</text>
    <text x="345.703" y="110.333" text-anchor="middle" dominant-baseline="central" font-family="system-ui, -apple-system, sans-serif" font-size="12" fill="#eeeeee" stroke="#111111" stroke-width="2" paint-order="stroke">2,74%</text>
    <text x="357.742" y="104.961" text-anchor="middle" dominant-baseline="central" font-family="system-ui, -apple-system, sans-serif" font-size="12" fill="#eeeeee" stroke="#111111" stroke-width="2" paint-order="stroke">2,55%</text>
    <g opacity="1"><path fill="none" stroke="#777777" stroke-width="1" d="M493.026,305.177L503.535,317.242L527.535,317.242"/><text x="533.535" y="317.242" text-anchor="start" dominant-baseline="central" font-family="system-ui, -apple-system, sans-serif" font-size="12" fill="#eeeeee" stroke="#111111" stroke-width="2" paint-order="stroke">10.11.6</text></g>
    <g opacity="1"><path fill="none" stroke="#777777" stroke-width="1" d="M243.351,91.830L229.795,83.332L205.795,83.332"/><text x="199.795" y="83.332" text-anchor="end" dominant-baseline="central" font-family="system-ui, -apple-system, sans-serif" font-size="12" fill="#eeeeee" stroke="#111111" stroke-width="2" paint-order="stroke">10.11.5</text></g>
    <g opacity="1"><path fill="none" stroke="#777777" stroke-width="1" d="M304.033,34.531L296.325,20.510L272.325,20.510"/><text x="266.325" y="20.510" text-anchor="end" dominant-baseline="central" font-family="system-ui, -apple-system, sans-serif" font-size="12" fill="#eeeeee" stroke="#111111" stroke-width="2" paint-order="stroke">10.11.4</text></g>
    <g opacity="1"><path fill="none" stroke="#777777" stroke-width="1" d="M329.173,23.316L323.888,8.214L299.888,8.214"/><text x="293.888" y="8.214" text-anchor="end" dominant-baseline="central" font-family="system-ui, -apple-system, sans-serif" font-size="12" fill="#eeeeee" stroke="#111111" stroke-width="2" paint-order="stroke">10.11.3</text></g>
  </g>
</svg>