<svg xmlns="http://www.w3.org/2000/svg" viewBox="0 0 768 370">
  <rect width="768" height="370" fill="transparent"/>
  <g>
    <path d="M384,180 L384.000,21.000 A159,159 0 1,1 242.487,107.509 Z" fill="#3b9eff" stroke="rgba(26, 71, 114, 0.5)" stroke-width="1"/>
    <path d="M384,180 L242.487,107.509 A159,159 0 0,1 311.080,38.707 Z" fill="#ff801f" stroke="rgba(114, 57, 13, 0.5)" stroke-width="1"/>
    <path d="M384,180 L311.080,38.707 A159,159 0 0,1 330.966,30.105 Z" fill="#9a5cd0" stroke="rgba(69, 41, 93, 0.5)" stroke-width="1"/>
    <path d="M384,180 L330.966,30.105 A159,159 0 0,1 350.638,24.539 Z" fill="#33b074" stroke="rgba(22, 79, 52, 0.5)" stroke-width="1"/>
    <path d="M384,180 L350.638,24.539 A159,159 0 0,1 365.132,22.123 Z" fill="#de51a8" stroke="rgba(99, 36, 75, 0.5)" stroke-width="1"/>
    <path d="M384,180 L365.132,22.123 A159,159 0 0,1 376.506,21.177 Z" fill="#6e6ade" stroke="rgba(49, 47, 99, 0.5)" stroke-width="1"/>
    <path d="M384,180 L376.506,21.177 A159,159 0 0,1 384.000,21.000 Z" fill="#ffd60a" stroke="rgba(114, 96, 4, 0.5)" stroke-width="1"/>
    <text x="425.465" y="247.830" text-anchor="middle" dominant-baseline="central" font-family="system-ui, -apple-system, sans-serif" font-size="12" fill="#eeeeee" stroke="#111111" stroke-width="2" paint-order="stroke">82,53%</text>
    <text x="327.700" y="123.870" text-anchor="middle" dominant-baseline="central" font-family="system-ui, -apple-system, sans-serif" font-size="12" fill="#eeeeee" stroke="#111111" stroke-width="2" paint-order="stroke">9,88%</text>
    <text x="352.438" y="107.034" text-anchor="middle" dominant-baseline="central" font-family="system-ui, -apple-system, sans-serif" font-size="12" fill="#eeeeee" stroke="#111111" stroke-width="2" paint-order="stroke">2,17%</text>
    <text x="362.356" y="103.503" text-anchor="middle" dominant-baseline="central" font-family="system-ui, -apple-system, sans-serif" font-size="12" fill="#eeeeee" stroke="#111111" stroke-width="2" paint-order="stroke">2,05%</text>
    <g opacity="1"><path fill="none" stroke="#777777" stroke-width="1" d="M470.581,321.632L478.927,335.283L502.927,335.283"/><text x="508.927" y="335.283" text-anchor="start" dominant-baseline="central" font-family="system-ui, -apple-system, sans-serif" font-size="12" fill="#eeeeee" stroke="#111111" stroke-width="2" paint-order="stroke">10.11.6</text></g>
    <g opacity="1"><path fill="none" stroke="#777777" stroke-width="1" d="M266.442,62.798L255.112,51.502L231.112,51.502"/><text x="225.112" y="51.502" text-anchor="end" dominant-baseline="central" font-family="system-ui, -apple-system, sans-serif" font-size="12" fill="#eeeeee" stroke="#111111" stroke-width="2" paint-order="stroke">10.11.5</text></g>
    <g opacity="1"><path fill="none" stroke="#777777" stroke-width="1" d="M318.097,27.642L311.745,12.957L287.745,12.957"/><text x="281.745" y="12.957" text-anchor="end" dominant-baseline="central" font-family="system-ui, -apple-system, sans-serif" font-size="12" fill="#eeeeee" stroke="#111111" stroke-width="2" paint-order="stroke">10.11.4</text></g>
    <g opacity="1"><path fill="none" stroke="#777777" stroke-width="1" d="M338.807,20.270L334.451,4.875L310.451,4.875"/><text x="304.451" y="4.875" text-anchor="end" dominant-baseline="central" font-family="system-ui, -apple-system, sans-serif" font-size="12" fill="#eeeeee" stroke="#111111" stroke-width="2" paint-order="stroke">10.11.3</text></g>
  </g>
</svg>