<svg xmlns="http://www.w3.org/2000/svg" viewBox="0 0 768 370">
  <rect width="768" height="370" fill="transparent"/>
  <g>
    <path d="M384,180 L384.000,21.000 A159,159 0 0,1 416.191,335.707 Z" fill="#3b9eff" stroke="rgba(26, 71, 114, 0.5)" stroke-width="1"/>
    <path d="M384,180 L416.191,335.707 A159,159 0 0,1 227.609,208.686 Z" fill="#ff801f" stroke="rgba(114, 57, 13, 0.5)" stroke-width="1"/>
    <path d="M384,180 L227.609,208.686 A159,159 0 0,1 229.831,141.106 Z" fill="#9a5cd0" stroke="rgba(69, 41, 93, 0.5)" stroke-width="1"/>
    <path d="M384,180 L229.831,141.106 A159,159 0 0,1 259.920,80.576 Z" fill="#33b074" stroke="rgba(22, 79, 52, 0.5)" stroke-width="1"/>
    <path d="M384,180 L259.920,80.576 A159,159 0 0,1 310.632,38.939 Z" fill="#de51a8" stroke="rgba(99, 36, 75, 0.5)" stroke-width="1"/>
    <path d="M384,180 L310.632,38.939 A159,159 0 0,1 324.579,32.521 Z" fill="#6e6ade" stroke="rgba(49, 47, 99, 0.5)" stroke-width="1"/>
    <path d="M384,180 L324.579,32.521 A159,159 0 0,1 337.431,27.973 Z" fill="#ffd60a" stroke="rgba(114, 96, 4, 0.5)" stroke-width="1"/>
    <path d="M384,180 L337.431,27.973 A159,159 0 0,1 347.075,25.347 Z" fill="#ec6142" stroke="rgba(106, 43, 29, 0.5)" stroke-width="1"/>
    <path d="M384,180 L347.075,25.347 A159,159 0 0,1 355.332,23.606 Z" fill="#2870bd" stroke="rgba(18, 50, 85, 0.5)" stroke-width="1"/>
    <path d="M384,180 L355.332,23.606 A159,159 0 0,1 363.000,22.393 Z" fill="#a35829" stroke="rgba(73, 39, 18, 0.5)" stroke-width="1"/>
    <path d="M384,180 L363.000,22.393 A159,159 0 0,1 369.862,21.630 Z" fill="#8457aa" stroke="rgba(59, 39, 76, 0.5)" stroke-width="1"/>
    <path d="M384,180 L369.862,21.630 A159,159 0 0,1 376.283,21.187 Z" fill="#2f7c57" stroke="rgba(21, 55, 39, 0.5)" stroke-width="1"/>
    <path d="M384,180 L376.283,21.187 A159,159 0 0,1 381.086,21.027 Z" fill="#a84885" stroke="rgba(75, 32, 59, 0.5)" stroke-width="1"/>
    <path d="M384,180 L381.086,21.027 A159,159 0 0,1 382.717,21.005 Z" fill="#5958b1" stroke="rgba(40, 39, 79, 0.5)" stroke-width="1"/>
    <path d="M384,180 L382.717,21.005 A159,159 0 0,1 383.333,21.001 Z" fill="#8f6424" stroke="rgba(64, 45, 16, 0.5)" stroke-width="1"/>
    <path d="M384,180 L383.333,21.001 A159,159 0 0,1 383.689,21.000 Z" fill="#ac4d39" stroke="rgba(77, 34, 25, 0.5)" stroke-width="1"/>
    <path d="M384,180 L383.689,21.000 A159,159 0 0,1 383.911,21.000 Z" fill="#222222" stroke="rgba(15, 15, 15, 0.5)" stroke-width="1"/>
    <path d="M384,180 L383.911,21.000 A159,159 0 0,1 384.000,21.000 Z" fill="#3b9eff" stroke="rgba(26, 71, 114, 0.5)" stroke-width="1"/>
    <text x="463.087" y="171.910" text-anchor="middle" dominant-baseline="central" font-family="system-ui, -apple-system, sans-serif" font-size="12" fill="#eeeeee" stroke="#111111" stroke-width="2" paint-order="stroke">46,76%</text>
    <text x="339.587" y="245.937" text-anchor="middle" dominant-baseline="central" font-family="system-ui, -apple-system, sans-serif" font-size="12" fill="#eeeeee" stroke="#111111" stroke-width="2" paint-order="stroke">25,36%</text>
    <text x="304.543" y="177.388" text-anchor="middle" dominant-baseline="central" font-family="system-ui, -apple-system, sans-serif" font-size="12" fill="#eeeeee" stroke="#111111" stroke-width="2" paint-order="stroke">6,82%</text>
    <text x="312.811" y="144.612" text-anchor="middle" dominant-baseline="central" font-family="system-ui, -apple-system, sans-serif" font-size="12" fill="#eeeeee" stroke="#111111" stroke-width="2" paint-order="stroke">6,82%</text>
    <text x="333.552" y="118.557" text-anchor="middle" dominant-baseline="central" font-family="system-ui, -apple-system, sans-serif" font-size="12" fill="#eeeeee" stroke="#111111" stroke-width="2" paint-order="stroke">6,62%</text>
    <g opacity="1"><path fill="none" stroke="#777777" stroke-width="1" d="M549.138,163.108L565.055,161.480L589.055,161.480"/><text x="595.055" y="161.480" text-anchor="start" dominant-baseline="central" font-family="system-ui, -apple-system, sans-serif" font-size="12" fill="#eeeeee" stroke="#111111" stroke-width="2" paint-order="stroke">10.11.8</text></g>
    <g opacity="1"><path fill="none" stroke="#777777" stroke-width="1" d="M291.264,317.681L282.325,330.951L258.325,330.951"/><text x="252.325" y="330.951" text-anchor="end" dominant-baseline="central" font-family="system-ui, -apple-system, sans-serif" font-size="12" fill="#eeeeee" stroke="#111111" stroke-width="2" paint-order="stroke">10.11.6</text></g>
    <g opacity="1"><path fill="none" stroke="#777777" stroke-width="1" d="M218.090,174.546L202.098,174.021L178.098,174.021"/><text x="172.098" y="174.021" text-anchor="end" dominant-baseline="central" font-family="system-ui, -apple-system, sans-serif" font-size="12" fill="#eeeeee" stroke="#111111" stroke-width="2" paint-order="stroke">10.11.5</text></g>
    <g opacity="1"><path fill="none" stroke="#777777" stroke-width="1" d="M235.353,106.108L221.026,98.985L197.026,98.985"/><text x="191.026" y="98.985" text-anchor="end" dominant-baseline="central" font-family="system-ui, -apple-system, sans-serif" font-size="12" fill="#eeeeee" stroke="#111111" stroke-width="2" paint-order="stroke">10.11.7</text></g>
    <g opacity="1"><path fill="none" stroke="#777777" stroke-width="1" d="M278.663,51.703L268.510,39.337L244.510,39.337"/><text x="238.510" y="39.337" text-anchor="end" dominant-baseline="central" font-family="system-ui, -apple-system, sans-serif" font-size="12" fill="#eeeeee" stroke="#111111" stroke-width="2" paint-order="stroke">10.10.7</text></g>
  </g>
</svg>