<svg xmlns="http://www.w3.org/2000/svg" viewBox="0 0 768 370">
  <rect width="768" height="370" fill="transparent"/>
  <g>
    <path d="M384,180 L384.000,21.000 A159,159 0 0,1 530.319,242.222 Z" fill="#3b9eff" stroke="rgba(26, 71, 114, 0.5)" stroke-width="1"/>
    <path d="M384,180 L530.319,242.222 A159,159 0 0,1 285.945,305.165 Z" fill="#ff801f" stroke="rgba(114, 57, 13, 0.5)" stroke-width="1"/>
    <path d="M384,180 L285.945,305.165 A159,159 0 0,1 228.099,148.759 Z" fill="#9a5cd0" stroke="rgba(69, 41, 93, 0.5)" stroke-width="1"/>
    <path d="M384,180 L228.099,148.759 A159,159 0 0,1 255.202,86.769 Z" fill="#33b074" stroke="rgba(22, 79, 52, 0.5)" stroke-width="1"/>
    <path d="M384,180 L255.202,86.769 A159,159 0 0,1 305.124,41.944 Z" fill="#de51a8" stroke="rgba(99, 36, 75, 0.5)" stroke-width="1"/>
    <path d="M384,180 L305.124,41.944 A159,159 0 0,1 318.339,35.191 Z" fill="#6e6ade" stroke="rgba(49, 47, 99, 0.5)" stroke-width="1"/>
    <path d="M384,180 L318.339,35.191 A159,159 0 0,1 331.499,29.918 Z" fill="#ffd60a" stroke="rgba(114, 96, 4, 0.5)" stroke-width="1"/>
    <path d="M384,180 L331.499,29.918 A159,159 0 0,1 344.659,25.944 Z" fill="#ec6142" stroke="rgba(106, 43, 29, 0.5)" stroke-width="1"/>
    <path d="M384,180 L344.659,25.944 A159,159 0 0,1 355.558,23.565 Z" fill="#2870bd" stroke="rgba(18, 50, 85, 0.5)" stroke-width="1"/>
    <path d="M384,180 L355.558,23.565 A159,159 0 0,1 363.914,22.274 Z" fill="#a35829" stroke="rgba(73, 39, 18, 0.5)" stroke-width="1"/>
    <path d="M384,180 L363.914,22.274 A159,159 0 0,1 371.638,21.481 Z" fill="#8457aa" stroke="rgba(59, 39, 76, 0.5)" stroke-width="1"/>
    <path d="M384,180 L371.638,21.481 A159,159 0 0,1 378.289,21.103 Z" fill="#2f7c57" stroke="rgba(21, 55, 39, 0.5)" stroke-width="1"/>
    <path d="M384,180 L378.289,21.103 A159,159 0 0,1 381.241,21.024 Z" fill="#a84885" stroke="rgba(75, 32, 59, 0.5)" stroke-width="1"/>
    <path d="M384,180 L381.241,21.024 A159,159 0 0,1 382.610,21.006 Z" fill="#5958b1" stroke="rgba(40, 39, 79, 0.5)" stroke-width="1"/>
    <path d="M384,180 L382.610,21.006 A159,159 0 0,1 383.208,21.002 Z" fill="#8f6424" stroke="rgba(64, 45, 16, 0.5)" stroke-width="1"/>
    <path d="M384,180 L383.208,21.002 A159,159 0 0,1 383.683,21.000 Z" fill="#ac4d39" stroke="rgba(77, 34, 25, 0.5)" stroke-width="1"/>
    <path d="M384,180 L383.683,21.000 A159,159 0 0,1 383.906,21.000 Z" fill="#222222" stroke="rgba(15, 15, 15, 0.5)" stroke-width="1"/>
    <path d="M384,180 L383.906,21.000 A159,159 0 0,1 384.000,21.000 Z" fill="#3b9eff" stroke="rgba(26, 71, 114, 0.5)" stroke-width="1"/>
    <text x="450.308" y="136.143" text-anchor="middle" dominant-baseline="central" font-family="system-ui, -apple-system, sans-serif" font-size="12" fill="#eeeeee" stroke="#111111" stroke-width="2" paint-order="stroke">31,40%</text>
    <text x="403.829" y="256.987" text-anchor="middle" dominant-baseline="central" font-family="system-ui, -apple-system, sans-serif" font-size="12" fill="#eeeeee" stroke="#111111" stroke-width="2" paint-order="stroke">29,18%</text>
    <text x="309.436" y="207.577" text-anchor="middle" dominant-baseline="central" font-family="system-ui, -apple-system, sans-serif" font-size="12" fill="#eeeeee" stroke="#111111" stroke-width="2" paint-order="stroke">17,57%</text>
    <text x="311.158" y="148.153" text-anchor="middle" dominant-baseline="central" font-family="system-ui, -apple-system, sans-serif" font-size="12" fill="#eeeeee" stroke="#111111" stroke-width="2" paint-order="stroke">6,82%</text>
    <text x="330.886" y="120.847" text-anchor="middle" dominant-baseline="central" font-family="system-ui, -apple-system, sans-serif" font-size="12" fill="#eeeeee" stroke="#111111" stroke-width="2" paint-order="stroke">6,77%</text>
    <g opacity="1"><path fill="none" stroke="#777777" stroke-width="1" d="M522.455,88.424L535.800,79.597L559.800,79.597"/><text x="565.800" y="79.597" text-anchor="start" dominant-baseline="central" font-family="system-ui, -apple-system, sans-serif" font-size="12" fill="#eeeeee" stroke="#111111" stroke-width="2" paint-order="stroke">10.11.6</text></g>
    <g opacity="1"><path fill="none" stroke="#777777" stroke-width="1" d="M425.404,340.753L429.395,356.248L453.395,356.248"/><text x="459.395" y="356.248" text-anchor="start" dominant-baseline="central" font-family="system-ui, -apple-system, sans-serif" font-size="12" fill="#eeeeee" stroke="#111111" stroke-width="2" paint-order="stroke">10.11.8</text></g>
    <g opacity="1"><path fill="none" stroke="#777777" stroke-width="1" d="M228.307,237.582L213.300,243.132L189.300,243.132"/><text x="183.300" y="243.132" text-anchor="end" dominant-baseline="central" font-family="system-ui, -apple-system, sans-serif" font-size="12" fill="#eeeeee" stroke="#111111" stroke-width="2" paint-order="stroke">10.11.7</text></g>
    <g opacity="1"><path fill="none" stroke="#777777" stroke-width="1" d="M231.901,113.502L217.241,107.092L193.241,107.092"/><text x="187.241" y="107.092" text-anchor="end" dominant-baseline="central" font-family="system-ui, -apple-system, sans-serif" font-size="12" fill="#eeeeee" stroke="#111111" stroke-width="2" paint-order="stroke">10.11.5</text></g>
    <g opacity="1"><path fill="none" stroke="#777777" stroke-width="1" d="M273.095,56.485L262.405,44.580L238.405,44.580"/><text x="232.405" y="44.580" text-anchor="end" dominant-baseline="central" font-family="system-ui, -apple-system, sans-serif" font-size="12" fill="#eeeeee" stroke="#111111" stroke-width="2" paint-order="stroke">10.10.7</text></g>
  </g>
</svg>