<svg xmlns="http://www.w3.org/2000/svg" viewBox="0 0 768 370">
  <rect width="768" height="370" fill="transparent"/>
  <g>
    <path d="M384,180 L384.000,21.000 A159,159 0 1,1 383.011,338.997 Z" fill="#3b9eff" stroke="rgba(26, 71, 114, 0.5)" stroke-width="1"/>
    <path d="M384,180 L383.011,338.997 A159,159 0 0,1 226.194,199.453 Z" fill="#ff801f" stroke="rgba(114, 57, 13, 0.5)" stroke-width="1"/>
    <path d="M384,180 L226.194,199.453 A159,159 0 0,1 231.795,134.014 Z" fill="#9a5cd0" stroke="rgba(69, 41, 93, 0.5)" stroke-width="1"/>
    <path d="M384,180 L231.795,134.014 A159,159 0 0,1 260.945,79.310 Z" fill="#33b074" stroke="rgba(22, 79, 52, 0.5)" stroke-width="1"/>
    <path d="M384,180 L260.945,79.310 A159,159 0 0,1 308.163,40.251 Z" fill="#de51a8" stroke="rgba(99, 36, 75, 0.5)" stroke-width="1"/>
    <path d="M384,180 L308.163,40.251 A159,159 0 0,1 321.247,33.907 Z" fill="#6e6ade" stroke="rgba(49, 47, 99, 0.5)" stroke-width="1"/>
    <path d="M384,180 L321.247,33.907 A159,159 0 0,1 334.184,29.006 Z" fill="#ffd60a" stroke="rgba(114, 96, 4, 0.5)" stroke-width="1"/>
    <path d="M384,180 L334.184,29.006 A159,159 0 0,1 347.448,25.258 Z" fill="#ec6142" stroke="rgba(106, 43, 29, 0.5)" stroke-width="1"/>
    <path d="M384,180 L347.448,25.258 A159,159 0 0,1 357.593,23.208 Z" fill="#2870bd" stroke="rgba(18, 50, 85, 0.5)" stroke-width="1"/>
    <path d="M384,180 L357.593,23.208 A159,159 0 0,1 365.769,22.049 Z" fill="#a35829" stroke="rgba(73, 39, 18, 0.5)" stroke-width="1"/>
    <path d="M384,180 L365.769,22.049 A159,159 0 0,1 373.173,21.369 Z" fill="#8457aa" stroke="rgba(59, 39, 76, 0.5)" stroke-width="1"/>
    <path d="M384,180 L373.173,21.369 A159,159 0 0,1 378.839,21.084 Z" fill="#2f7c57" stroke="rgba(21, 55, 39, 0.5)" stroke-width="1"/>
    <path d="M384,180 L378.839,21.084 A159,159 0 0,1 381.524,21.019 Z" fill="#a84885" stroke="rgba(75, 32, 59, 0.5)" stroke-width="1"/>
    <path d="M384,180 L381.524,21.019 A159,159 0 0,1 382.809,21.004 Z" fill="#5958b1" stroke="rgba(40, 39, 79, 0.5)" stroke-width="1"/>
    <path d="M384,180 L382.809,21.004 A159,159 0 0,1 383.365,21.001 Z" fill="#8f6424" stroke="rgba(64, 45, 16, 0.5)" stroke-width="1"/>
    <path d="M384,180 L383.365,21.001 A159,159 0 0,1 383.711,21.000 Z" fill="#ac4d39" stroke="rgba(77, 34, 25, 0.5)" stroke-width="1"/>
    <path d="M384,180 L383.711,21.000 A159,159 0 0,1 383.928,21.000 Z" fill="#222222" stroke="rgba(15, 15, 15, 0.5)" stroke-width="1"/>
    <path d="M384,180 L383.928,21.000 A159,159 0 0,1 384.000,21.000 Z" fill="#3b9eff" stroke="rgba(26, 71, 114, 0.5)" stroke-width="1"/>
    <text x="463.500" y="180.247" text-anchor="middle" dominant-baseline="central" font-family="system-ui, -apple-system, sans-serif" font-size="12" fill="#eeeeee" stroke="#111111" stroke-width="2" paint-order="stroke">50,10%</text>
    <text x="331.151" y="239.391" text-anchor="middle" dominant-baseline="central" font-family="system-ui, -apple-system, sans-serif" font-size="12" fill="#eeeeee" stroke="#111111" stroke-width="2" paint-order="stroke">22,95%</text>
    <text x="304.790" y="173.221" text-anchor="middle" dominant-baseline="central" font-family="system-ui, -apple-system, sans-serif" font-size="12" fill="#eeeeee" stroke="#111111" stroke-width="2" paint-order="stroke">6,62%</text>
    <text x="313.839" y="142.614" text-anchor="middle" dominant-baseline="central" font-family="system-ui, -apple-system, sans-serif" font-size="12" fill="#eeeeee" stroke="#111111" stroke-width="2" paint-order="stroke">6,24%</text>
    <text x="333.327" y="118.742" text-anchor="middle" dominant-baseline="central" font-family="system-ui, -apple-system, sans-serif" font-size="12" fill="#eeeeee" stroke="#111111" stroke-width="2" paint-order="stroke">6,17%</text>
    <g opacity="1"><path fill="none" stroke="#777777" stroke-width="1" d="M549.999,180.516L565.999,180.566L589.999,180.566"/><text x="595.999" y="180.566" text-anchor="start" dominant-baseline="central" font-family="system-ui, -apple-system, sans-serif" font-size="12" fill="#eeeeee" stroke="#111111" stroke-width="2" paint-order="stroke">10.11.8</text></g>
    <g opacity="1"><path fill="none" stroke="#777777" stroke-width="1" d="M273.649,304.010L263.012,315.963L239.012,315.963"/><text x="233.012" y="315.963" text-anchor="end" dominant-baseline="central" font-family="system-ui, -apple-system, sans-serif" font-size="12" fill="#eeeeee" stroke="#111111" stroke-width="2" paint-order="stroke">10.11.6</text></g>
    <g opacity="1"><path fill="none" stroke="#777777" stroke-width="1" d="M218.605,165.844L202.663,164.480L178.663,164.480"/><text x="172.663" y="164.480" text-anchor="end" dominant-baseline="central" font-family="system-ui, -apple-system, sans-serif" font-size="12" fill="#eeeeee" stroke="#111111" stroke-width="2" paint-order="stroke">10.10.7</text></g>
    <g opacity="1"><path fill="none" stroke="#777777" stroke-width="1" d="M237.501,101.936L223.381,94.412L199.381,94.412"/><text x="193.381" y="94.412" text-anchor="end" dominant-baseline="central" font-family="system-ui, -apple-system, sans-serif" font-size="12" fill="#eeeeee" stroke="#111111" stroke-width="2" paint-order="stroke">10.11.5</text></g>
    <g opacity="1"><path fill="none" stroke="#777777" stroke-width="1" d="M278.193,52.090L267.995,39.762L243.995,39.762"/><text x="237.995" y="39.762" text-anchor="end" dominant-baseline="central" font-family="system-ui, -apple-system, sans-serif" font-size="12" fill="#eeeeee" stroke="#111111" stroke-width="2" paint-order="stroke">10.11.7</text></g>
  </g>
</svg>