<svg xmlns="http://www.w3.org/2000/svg" viewBox="0 0 768 370">
  <rect width="768" height="370" fill="transparent"/>
  <g>
    <path d="M384,180 L384.000,21.000 A159,159 0 1,1 234.154,233.170 Z" fill="#3b9eff" stroke="rgba(26, 71, 114, 0.5)" stroke-width="1"/>
    <path d="M384,180 L234.154,233.170 A159,159 0 0,1 234.937,124.672 Z" fill="#ff801f" stroke="rgba(114, 57, 13, 0.5)" stroke-width="1"/>
    <path d="M384,180 L234.937,124.672 A159,159 0 0,1 287.454,53.667 Z" fill="#9a5cd0" stroke="rgba(69, 41, 93, 0.5)" stroke-width="1"/>
    <path d="M384,180 L287.454,53.667 A159,159 0 0,1 307.317,40.714 Z" fill="#33b074" stroke="rgba(22, 79, 52, 0.5)" stroke-width="1"/>
    <path d="M384,180 L307.317,40.714 A159,159 0 0,1 326.528,31.750 Z" fill="#de51a8" stroke="rgba(99, 36, 75, 0.5)" stroke-width="1"/>
    <path d="M384,180 L326.528,31.750 A159,159 0 0,1 340.022,27.203 Z" fill="#6e6ade" stroke="rgba(49, 47, 99, 0.5)" stroke-width="1"/>
    <path d="M384,180 L340.022,27.203 A159,159 0 0,1 352.533,24.145 Z" fill="#ffd60a" stroke="rgba(114, 96, 4, 0.5)" stroke-width="1"/>
    <path d="M384,180 L352.533,24.145 A159,159 0 0,1 361.862,22.549 Z" fill="#ec6142" stroke="rgba(106, 43, 29, 0.5)" stroke-width="1"/>
    <path d="M384,180 L361.862,22.549 A159,159 0 0,1 369.466,21.666 Z" fill="#2870bd" stroke="rgba(18, 50, 85, 0.5)" stroke-width="1"/>
    <path d="M384,180 L369.466,21.666 A159,159 0 0,1 377.047,21.152 Z" fill="#a35829" stroke="rgba(73, 39, 18, 0.5)" stroke-width="1"/>
    <path d="M384,180 L377.047,21.152 A159,159 0 0,1 380.176,21.046 Z" fill="#8457aa" stroke="rgba(59, 39, 76, 0.5)" stroke-width="1"/>
    <path d="M384,180 L380.176,21.046 A159,159 0 0,1 382.402,21.008 Z" fill="#2f7c57" stroke="rgba(21, 55, 39, 0.5)" stroke-width="1"/>
    <path d="M384,180 L382.402,21.008 A159,159 0 0,1 383.209,21.002 Z" fill="#a84885" stroke="rgba(75, 32, 59, 0.5)" stroke-width="1"/>
    <path d="M384,180 L383.209,21.002 A159,159 0 0,1 383.609,21.000 Z" fill="#5958b1" stroke="rgba(40, 39, 79, 0.5)" stroke-width="1"/>
    <path d="M384,180 L383.609,21.000 A159,159 0 0,1 383.910,21.000 Z" fill="#8f6424" stroke="rgba(64, 45, 16, 0.5)" stroke-width="1"/>
    <path d="M384,180 L383.910,21.000 A159,159 0 0,1 384.000,21.000 Z" fill="#ac4d39" stroke="rgba(77, 34, 25, 0.5)" stroke-width="1"/>
    <text x="448.938" y="225.862" text-anchor="middle" dominant-baseline="central" font-family="system-ui, -apple-system, sans-serif" font-size="12" fill="#eeeeee" stroke="#111111" stroke-width="2" paint-order="stroke">69,57%</text>
    <text x="304.502" y="179.426" text-anchor="middle" dominant-baseline="central" font-family="system-ui, -apple-system, sans-serif" font-size="12" fill="#eeeeee" stroke="#111111" stroke-width="2" paint-order="stroke">11,08%</text>
    <text x="320.083" y="132.725" text-anchor="middle" dominant-baseline="central" font-family="system-ui, -apple-system, sans-serif" font-size="12" fill="#eeeeee" stroke="#111111" stroke-width="2" paint-order="stroke">8,96%</text>
    <text x="340.572" y="113.410" text-anchor="middle" dominant-baseline="central" font-family="system-ui, -apple-system, sans-serif" font-size="12" fill="#eeeeee" stroke="#111111" stroke-width="2" paint-order="stroke">2,38%</text>
    <text x="350.386" y="107.956" text-anchor="middle" dominant-baseline="central" font-family="system-ui, -apple-system, sans-serif" font-size="12" fill="#eeeeee" stroke="#111111" stroke-width="2" paint-order="stroke">2,12%</text>
    <g opacity="1"><path fill="none" stroke="#777777" stroke-width="1" d="M519.593,275.763L532.662,284.993L556.662,284.993"/><text x="562.662" y="284.993" text-anchor="start" dominant-baseline="central" font-family="system-ui, -apple-system, sans-serif" font-size="12" fill="#eeeeee" stroke="#111111" stroke-width="2" paint-order="stroke">10.11.6</text></g>
    <g opacity="1"><path fill="none" stroke="#777777" stroke-width="1" d="M218.004,178.802L202.005,178.686L178.005,178.686"/><text x="172.005" y="178.686" text-anchor="end" dominant-baseline="central" font-family="system-ui, -apple-system, sans-serif" font-size="12" fill="#eeeeee" stroke="#111111" stroke-width="2" paint-order="stroke">10.11.5</text></g>
    <g opacity="1"><path fill="none" stroke="#777777" stroke-width="1" d="M250.539,81.288L237.675,71.773L213.675,71.773"/><text x="207.675" y="71.773" text-anchor="end" dominant-baseline="central" font-family="system-ui, -apple-system, sans-serif" font-size="12" fill="#eeeeee" stroke="#111111" stroke-width="2" paint-order="stroke">10.10.7</text></g>
    <g opacity="1"><path fill="none" stroke="#777777" stroke-width="1" d="M293.320,40.956L284.580,27.555L260.580,27.555"/><text x="254.580" y="27.555" text-anchor="end" dominant-baseline="central" font-family="system-ui, -apple-system, sans-serif" font-size="12" fill="#eeeeee" stroke="#111111" stroke-width="2" paint-order="stroke">10.11.4</text></g>
    <g opacity="1"><path fill="none" stroke="#777777" stroke-width="1" d="M313.813,29.568L307.048,15.068L283.048,15.068"/><text x="277.048" y="15.068" text-anchor="end" dominant-baseline="central" font-family="system-ui, -apple-system, sans-serif" font-size="12" fill="#eeeeee" stroke="#111111" stroke-width="2" paint-order="stroke">10.11.3</text></g>
  </g>
</svg>