<svg xmlns="http://www.w3.org/2000/svg" viewBox="0 0 768 370">
  <rect width="768" height="370" fill="transparent"/>
  <g>
    <path d="M384,180 L384.000,21.000 A159,159 0 1,1 253.238,270.456 Z" fill="#3b9eff" stroke="rgba(26, 71, 114, 0.5)" stroke-width="1"/>
    <path d="M384,180 L253.238,270.456 A159,159 0 0,1 229.259,143.444 Z" fill="#ff801f" stroke="rgba(114, 57, 13, 0.5)" stroke-width="1"/>
    <path d="M384,180 L229.259,143.444 A159,159 0 0,1 272.114,67.028 Z" fill="#9a5cd0" stroke="rgba(69, 41, 93, 0.5)" stroke-width="1"/>
    <path d="M384,180 L272.114,67.028 A159,159 0 0,1 301.911,43.829 Z" fill="#33b074" stroke="rgba(22, 79, 52, 0.5)" stroke-width="1"/>
    <path d="M384,180 L301.911,43.829 A159,159 0 0,1 322.612,33.329 Z" fill="#de51a8" stroke="rgba(99, 36, 75, 0.5)" stroke-width="1"/>
    <path d="M384,180 L322.612,33.329 A159,159 0 0,1 337.963,27.811 Z" fill="#6e6ade" stroke="rgba(49, 47, 99, 0.5)" stroke-width="1"/>
    <path d="M384,180 L337.963,27.811 A159,159 0 0,1 349.120,24.873 Z" fill="#ffd60a" stroke="rgba(114, 96, 4, 0.5)" stroke-width="1"/>
    <path d="M384,180 L349.120,24.873 A159,159 0 0,1 359.938,22.831 Z" fill="#ec6142" stroke="rgba(106, 43, 29, 0.5)" stroke-width="1"/>
    <path d="M384,180 L359.938,22.831 A159,159 0 0,1 368.419,21.765 Z" fill="#2870bd" stroke="rgba(18, 50, 85, 0.5)" stroke-width="1"/>
    <path d="M384,180 L368.419,21.765 A159,159 0 0,1 376.753,21.165 Z" fill="#a35829" stroke="rgba(73, 39, 18, 0.5)" stroke-width="1"/>
    <path d="M384,180 L376.753,21.165 A159,159 0 0,1 380.335,21.042 Z" fill="#8457aa" stroke="rgba(59, 39, 76, 0.5)" stroke-width="1"/>
    <path d="M384,180 L380.335,21.042 A159,159 0 0,1 382.276,21.009 Z" fill="#2f7c57" stroke="rgba(21, 55, 39, 0.5)" stroke-width="1"/>
    <path d="M384,180 L382.276,21.009 A159,159 0 0,1 383.110,21.002 Z" fill="#a84885" stroke="rgba(75, 32, 59, 0.5)" stroke-width="1"/>
    <path d="M384,180 L383.110,21.002 A159,159 0 0,1 383.591,21.001 Z" fill="#5958b1" stroke="rgba(40, 39, 79, 0.5)" stroke-width="1"/>
    <path d="M384,180 L383.591,21.001 A159,159 0 0,1 383.880,21.000 Z" fill="#8f6424" stroke="rgba(64, 45, 16, 0.5)" stroke-width="1"/>
    <path d="M384,180 L383.880,21.000 A159,159 0 0,1 384.000,21.000 Z" fill="#ac4d39" stroke="rgba(77, 34, 25, 0.5)" stroke-width="1"/>
    <text x="454.413" y="216.910" text-anchor="middle" dominant-baseline="central" font-family="system-ui, -apple-system, sans-serif" font-size="12" fill="#eeeeee" stroke="#111111" stroke-width="2" paint-order="stroke">65,37%</text>
    <text x="305.880" y="194.748" text-anchor="middle" dominant-baseline="central" font-family="system-ui, -apple-system, sans-serif" font-size="12" fill="#eeeeee" stroke="#111111" stroke-width="2" paint-order="stroke">13,32%</text>
    <text x="314.660" y="141.113" text-anchor="middle" dominant-baseline="central" font-family="system-ui, -apple-system, sans-serif" font-size="12" fill="#eeeeee" stroke="#111111" stroke-width="2" paint-order="stroke">8,88%</text>
    <text x="335.161" y="117.271" text-anchor="middle" dominant-baseline="central" font-family="system-ui, -apple-system, sans-serif" font-size="12" fill="#eeeeee" stroke="#111111" stroke-width="2" paint-order="stroke">3,79%</text>
    <text x="348.035" y="109.100" text-anchor="middle" dominant-baseline="central" font-family="system-ui, -apple-system, sans-serif" font-size="12" fill="#eeeeee" stroke="#111111" stroke-width="2" paint-order="stroke">2,33%</text>
    <g opacity="1"><path fill="none" stroke="#777777" stroke-width="1" d="M531.025,257.069L545.196,264.497L569.196,264.497"/><text x="575.196" y="264.497" text-anchor="start" dominant-baseline="central" font-family="system-ui, -apple-system, sans-serif" font-size="12" fill="#eeeeee" stroke="#111111" stroke-width="2" paint-order="stroke">10.11.6</text></g>
    <g opacity="1"><path fill="none" stroke="#777777" stroke-width="1" d="M220.881,210.795L205.159,213.763L181.159,213.763"/><text x="175.159" y="213.763" text-anchor="end" dominant-baseline="central" font-family="system-ui, -apple-system, sans-serif" font-size="12" fill="#eeeeee" stroke="#111111" stroke-width="2" paint-order="stroke">10.11.5</text></g>
    <g opacity="1"><path fill="none" stroke="#777777" stroke-width="1" d="M239.214,98.802L225.259,90.976L201.259,90.976"/><text x="195.259" y="90.976" text-anchor="end" dominant-baseline="central" font-family="system-ui, -apple-system, sans-serif" font-size="12" fill="#eeeeee" stroke="#111111" stroke-width="2" paint-order="stroke">10.10.7</text></g>
    <g opacity="1"><path fill="none" stroke="#777777" stroke-width="1" d="M282.021,49.018L272.192,36.393L248.192,36.393"/><text x="242.192" y="36.393" text-anchor="end" dominant-baseline="central" font-family="system-ui, -apple-system, sans-serif" font-size="12" fill="#eeeeee" stroke="#111111" stroke-width="2" paint-order="stroke">10.11.4</text></g>
    <g opacity="1"><path fill="none" stroke="#777777" stroke-width="1" d="M308.903,31.958L301.665,17.689L277.665,17.689"/><text x="271.665" y="17.689" text-anchor="end" dominant-baseline="central" font-family="system-ui, -apple-system, sans-serif" font-size="12" fill="#eeeeee" stroke="#111111" stroke-width="2" paint-order="stroke">10.11.3</text></g>
  </g>
</svg>