<svg xmlns="http://www.w3.org/2000/svg" viewBox="0 0 768 370">
  <rect width="768" height="370" fill="transparent"/>
  <g>
    <path d="M384,180 L384.000,21.000 A159,159 0 1,1 241.164,249.850 Z" fill="#3b9eff" stroke="rgba(26, 71, 114, 0.5)" stroke-width="1"/>
    <path d="M384,180 L241.164,249.850 A159,159 0 0,1 232.525,131.663 Z" fill="#ff801f" stroke="rgba(114, 57, 13, 0.5)" stroke-width="1"/>
    <path d="M384,180 L232.525,131.663 A159,159 0 0,1 282.333,57.751 Z" fill="#9a5cd0" stroke="rgba(69, 41, 93, 0.5)" stroke-width="1"/>
    <path d="M384,180 L282.333,57.751 A159,159 0 0,1 303.570,42.843 Z" fill="#33b074" stroke="rgba(22, 79, 52, 0.5)" stroke-width="1"/>
    <path d="M384,180 L303.570,42.843 A159,159 0 0,1 323.491,32.964 Z" fill="#de51a8" stroke="rgba(99, 36, 75, 0.5)" stroke-width="1"/>
    <path d="M384,180 L323.491,32.964 A159,159 0 0,1 338.274,27.717 Z" fill="#6e6ade" stroke="rgba(49, 47, 99, 0.5)" stroke-width="1"/>
    <path d="M384,180 L338.274,27.717 A159,159 0 0,1 350.174,24.640 Z" fill="#ffd60a" stroke="rgba(114, 96, 4, 0.5)" stroke-width="1"/>
    <path d="M384,180 L350.174,24.640 A159,159 0 0,1 359.596,22.884 Z" fill="#ec6142" stroke="rgba(106, 43, 29, 0.5)" stroke-width="1"/>
    <path d="M384,180 L359.596,22.884 A159,159 0 0,1 368.744,21.734 Z" fill="#2870bd" stroke="rgba(18, 50, 85, 0.5)" stroke-width="1"/>
    <path d="M384,180 L368.744,21.734 A159,159 0 0,1 376.388,21.182 Z" fill="#a35829" stroke="rgba(73, 39, 18, 0.5)" stroke-width="1"/>
    <path d="M384,180 L376.388,21.182 A159,159 0 0,1 380.132,21.047 Z" fill="#8457aa" stroke="rgba(59, 39, 76, 0.5)" stroke-width="1"/>
    <path d="M384,180 L380.132,21.047 A159,159 0 0,1 382.037,21.012 Z" fill="#2f7c57" stroke="rgba(21, 55, 39, 0.5)" stroke-width="1"/>
    <path d="M384,180 L382.037,21.012 A159,159 0 0,1 382.938,21.004 Z" fill="#a84885" stroke="rgba(75, 32, 59, 0.5)" stroke-width="1"/>
    <path d="M384,180 L382.938,21.004 A159,159 0 0,1 383.594,21.001 Z" fill="#5958b1" stroke="rgba(40, 39, 79, 0.5)" stroke-width="1"/>
    <path d="M384,180 L383.594,21.001 A159,159 0 0,1 383.886,21.000 Z" fill="#8f6424" stroke="rgba(64, 45, 16, 0.5)" stroke-width="1"/>
    <path d="M384,180 L383.886,21.000 A159,159 0 0,1 384.000,21.000 Z" fill="#ac4d39" stroke="rgba(77, 34, 25, 0.5)" stroke-width="1"/>
    <text x="451.442" y="222.094" text-anchor="middle" dominant-baseline="central" font-family="system-ui, -apple-system, sans-serif" font-size="12" fill="#eeeeee" stroke="#111111" stroke-width="2" paint-order="stroke">67,76%</text>
    <text x="304.712" y="185.796" text-anchor="middle" dominant-baseline="central" font-family="system-ui, -apple-system, sans-serif" font-size="12" fill="#eeeeee" stroke="#111111" stroke-width="2" paint-order="stroke">12,15%</text>
    <text x="318.072" y="135.573" text-anchor="middle" dominant-baseline="central" font-family="system-ui, -apple-system, sans-serif" font-size="12" fill="#eeeeee" stroke="#111111" stroke-width="2" paint-order="stroke">9,04%</text>
    <text x="338.323" y="114.932" text-anchor="middle" dominant-baseline="central" font-family="system-ui, -apple-system, sans-serif" font-size="12" fill="#eeeeee" stroke="#111111" stroke-width="2" paint-order="stroke">2,60%</text>
    <text x="348.679" y="108.777" text-anchor="middle" dominant-baseline="central" font-family="system-ui, -apple-system, sans-serif" font-size="12" fill="#eeeeee" stroke="#111111" stroke-width="2" paint-order="stroke">2,23%</text>
    <g opacity="1"><path fill="none" stroke="#777777" stroke-width="1" d="M524.822,267.893L538.395,276.365L562.395,276.365"/><text x="568.395" y="276.365" text-anchor="start" dominant-baseline="central" font-family="system-ui, -apple-system, sans-serif" font-size="12" fill="#eeeeee" stroke="#111111" stroke-width="2" paint-order="stroke">10.11.6</text></g>
    <g opacity="1"><path fill="none" stroke="#777777" stroke-width="1" d="M218.442,192.101L202.484,193.268L178.484,193.268"/><text x="172.484" y="193.268" text-anchor="end" dominant-baseline="central" font-family="system-ui, -apple-system, sans-serif" font-size="12" fill="#eeeeee" stroke="#111111" stroke-width="2" paint-order="stroke">10.11.5</text></g>
    <g opacity="1"><path fill="none" stroke="#777777" stroke-width="1" d="M246.339,87.234L233.071,78.293L209.071,78.293"/><text x="203.071" y="78.293" text-anchor="end" dominant-baseline="central" font-family="system-ui, -apple-system, sans-serif" font-size="12" fill="#eeeeee" stroke="#111111" stroke-width="2" paint-order="stroke">10.10.7</text></g>
    <g opacity="1"><path fill="none" stroke="#777777" stroke-width="1" d="M288.625,44.134L279.432,31.038L255.432,31.038"/><text x="249.432" y="31.038" text-anchor="end" dominant-baseline="central" font-family="system-ui, -apple-system, sans-serif" font-size="12" fill="#eeeeee" stroke="#111111" stroke-width="2" paint-order="stroke">10.11.4</text></g>
    <g opacity="1"><path fill="none" stroke="#777777" stroke-width="1" d="M310.247,31.284L303.139,16.950L279.139,16.950"/><text x="273.139" y="16.950" text-anchor="end" dominant-baseline="central" font-family="system-ui, -apple-system, sans-serif" font-size="12" fill="#eeeeee" stroke="#111111" stroke-width="2" paint-order="stroke">10.11.3</text></g>
  </g>
</svg>