<svg xmlns="http://www.w3.org/2000/svg" viewBox="0 0 768 370">
  <rect width="768" height="370" fill="transparent"/>
  <g>
    <path d="M384,180 L384.000,21.000 A159,159 0 1,1 280.893,58.963 Z" fill="#3b9eff" stroke="rgba(26, 71, 114, 0.5)" stroke-width="1"/>
    <path d="M384,180 L280.893,58.963 A159,159 0 0,1 379.341,21.068 Z" fill="#ff801f" stroke="rgba(114, 57, 13, 0.5)" stroke-width="1"/>
    <path d="M384,180 L379.341,21.068 A159,159 0 0,1 382.247,21.010 Z" fill="#9a5cd0" stroke="rgba(69, 41, 93, 0.5)" stroke-width="1"/>
    <path d="M384,180 L382.247,21.010 A159,159 0 0,1 383.492,21.001 Z" fill="#33b074" stroke="rgba(22, 79, 52, 0.5)" stroke-width="1"/>
    <path d="M384,180 L383.492,21.001 A159,159 0 0,1 383.992,21.000 Z" fill="#de51a8" stroke="rgba(99, 36, 75, 0.5)" stroke-width="1"/>
    <path d="M384,180 L383.992,21.000 A159,159 0 0,1 384.000,21.000 Z" fill="#6e6ade" stroke="rgba(49, 47, 99, 0.5)" stroke-width="1"/>
    <text x="411.469" y="254.604" text-anchor="middle" dominant-baseline="central" font-family="system-ui, -apple-system, sans-serif" font-size="12" fill="#eeeeee" stroke="#111111" stroke-width="2" paint-order="stroke">88,77%</text>
    <text x="355.441" y="105.807" text-anchor="middle" dominant-baseline="central" font-family="system-ui, -apple-system, sans-serif" font-size="12" fill="#eeeeee" stroke="#111111" stroke-width="2" paint-order="stroke">10,76%</text>
    <g opacity="1"><path fill="none" stroke="#777777" stroke-width="1" d="M441.356,335.777L446.884,350.791L470.884,350.791"/><text x="476.884" y="350.791" text-anchor="start" dominant-baseline="central" font-family="system-ui, -apple-system, sans-serif" font-size="12" fill="#eeeeee" stroke="#111111" stroke-width="2" paint-order="stroke">10.11</text></g>
    <g opacity="1"><path fill="none" stroke="#777777" stroke-width="1" d="M324.368,25.081L318.620,10.149L294.620,10.149"/><text x="288.620" y="10.149" text-anchor="end" dominant-baseline="central" font-family="system-ui, -apple-system, sans-serif" font-size="12" fill="#eeeeee" stroke="#111111" stroke-width="2" paint-order="stroke">10.10</text></g>
  </g>
</svg>