<svg xmlns="http://www.w3.org/2000/svg" viewBox="0 0 768 370">
  <rect width="768" height="370" fill="transparent"/>
  <g>
    <path d="M384,180 L384.000,21.000 A159,159 0 1,1 285.593,55.112 Z" fill="#3b9eff" stroke="rgba(26, 71, 114, 0.5)" stroke-width="1"/>
    <path d="M384,180 L285.593,55.112 A159,159 0 0,1 379.862,21.054 Z" fill="#ff801f" stroke="rgba(114, 57, 13, 0.5)" stroke-width="1"/>
    <path d="M384,180 L379.862,21.054 A159,159 0 0,1 382.333,21.009 Z" fill="#9a5cd0" stroke="rgba(69, 41, 93, 0.5)" stroke-width="1"/>
    <path d="M384,180 L382.333,21.009 A159,159 0 0,1 383.541,21.001 Z" fill="#33b074" stroke="rgba(22, 79, 52, 0.5)" stroke-width="1"/>
    <path d="M384,180 L383.541,21.001 A159,159 0 0,1 383.984,21.000 Z" fill="#de51a8" stroke="rgba(99, 36, 75, 0.5)" stroke-width="1"/>
    <path d="M384,180 L383.984,21.000 A159,159 0 0,1 384.000,21.000 Z" fill="#6e6ade" stroke="rgba(49, 47, 99, 0.5)" stroke-width="1"/>
    <text x="410.038" y="255.115" text-anchor="middle" dominant-baseline="central" font-family="system-ui, -apple-system, sans-serif" font-size="12" fill="#eeeeee" stroke="#111111" stroke-width="2" paint-order="stroke">89,38%</text>
    <text x="356.987" y="105.230" text-anchor="middle" dominant-baseline="central" font-family="system-ui, -apple-system, sans-serif" font-size="12" fill="#eeeeee" stroke="#111111" stroke-width="2" paint-order="stroke">10,21%</text>
    <g opacity="1"><path fill="none" stroke="#777777" stroke-width="1" d="M438.369,336.844L443.609,351.962L467.609,351.962"/><text x="473.609" y="351.962" text-anchor="start" dominant-baseline="central" font-family="system-ui, -apple-system, sans-serif" font-size="12" fill="#eeeeee" stroke="#111111" stroke-width="2" paint-order="stroke">10.11</text></g>
    <g opacity="1"><path fill="none" stroke="#777777" stroke-width="1" d="M327.595,23.877L322.158,8.829L298.158,8.829"/><text x="292.158" y="8.829" text-anchor="end" dominant-baseline="central" font-family="system-ui, -apple-system, sans-serif" font-size="12" fill="#eeeeee" stroke="#111111" stroke-width="2" paint-order="stroke">10.10</text></g>
  </g>
</svg>