<svg xmlns="http://www.w3.org/2000/svg" viewBox="0 0 768 370">
  <rect width="768" height="370" fill="transparent"/>
  <g>
    <path d="M384,180 L384.000,21.000 A159,159 0 1,1 281.770,58.222 Z" fill="#3b9eff" stroke="rgba(26, 71, 114, 0.5)" stroke-width="1"/>
    <path d="M384,180 L281.770,58.222 A159,159 0 0,1 379.072,21.076 Z" fill="#ff801f" stroke="rgba(114, 57, 13, 0.5)" stroke-width="1"/>
    <path d="M384,180 L379.072,21.076 A159,159 0 0,1 382.177,21.010 Z" fill="#9a5cd0" stroke="rgba(69, 41, 93, 0.5)" stroke-width="1"/>
    <path d="M384,180 L382.177,21.010 A159,159 0 0,1 383.542,21.001 Z" fill="#33b074" stroke="rgba(22, 79, 52, 0.5)" stroke-width="1"/>
    <path d="M384,180 L383.542,21.001 A159,159 0 0,1 383.992,21.000 Z" fill="#de51a8" stroke="rgba(99, 36, 75, 0.5)" stroke-width="1"/>
    <path d="M384,180 L383.992,21.000 A159,159 0 0,1 384.000,21.000 Z" fill="#6e6ade" stroke="rgba(49, 47, 99, 0.5)" stroke-width="1"/>
    <text x="411.199" y="254.703" text-anchor="middle" dominant-baseline="central" font-family="system-ui, -apple-system, sans-serif" font-size="12" fill="#eeeeee" stroke="#111111" stroke-width="2" paint-order="stroke">88,89%</text>
    <text x="355.646" y="105.728" text-anchor="middle" dominant-baseline="central" font-family="system-ui, -apple-system, sans-serif" font-size="12" fill="#eeeeee" stroke="#111111" stroke-width="2" paint-order="stroke">10,62%</text>
    <g opacity="1"><path fill="none" stroke="#777777" stroke-width="1" d="M440.793,335.983L446.267,351.017L470.267,351.017"/><text x="476.267" y="351.017" text-anchor="start" dominant-baseline="central" font-family="system-ui, -apple-system, sans-serif" font-size="12" fill="#eeeeee" stroke="#111111" stroke-width="2" paint-order="stroke">10.11</text></g>
    <g opacity="1"><path fill="none" stroke="#777777" stroke-width="1" d="M324.796,24.916L319.090,9.969L295.090,9.969"/><text x="289.090" y="9.969" text-anchor="end" dominant-baseline="central" font-family="system-ui, -apple-system, sans-serif" font-size="12" fill="#eeeeee" stroke="#111111" stroke-width="2" paint-order="stroke">10.10</text></g>
  </g>
</svg>