<svg xmlns="http://www.w3.org/2000/svg" viewBox="0 0 768 370">
  <rect width="768" height="370" fill="transparent"/>
  <g>
    <path d="M384,180 L384.000,21.000 A159,159 0 1,1 286.432,54.455 Z" fill="#3b9eff" stroke="rgba(26, 71, 114, 0.5)" stroke-width="1"/>
    <path d="M384,180 L286.432,54.455 A159,159 0 0,1 379.312,21.069 Z" fill="#ff801f" stroke="rgba(114, 57, 13, 0.5)" stroke-width="1"/>
    <path d="M384,180 L379.312,21.069 A159,159 0 0,1 382.303,21.009 Z" fill="#9a5cd0" stroke="rgba(69, 41, 93, 0.5)" stroke-width="1"/>
    <path d="M384,180 L382.303,21.009 A159,159 0 0,1 383.568,21.001 Z" fill="#33b074" stroke="rgba(22, 79, 52, 0.5)" stroke-width="1"/>
    <path d="M384,180 L383.568,21.001 A159,159 0 0,1 383.992,21.000 Z" fill="#de51a8" stroke="rgba(99, 36, 75, 0.5)" stroke-width="1"/>
    <path d="M384,180 L383.992,21.000 A159,159 0 0,1 384.000,21.000 Z" fill="#6e6ade" stroke="rgba(49, 47, 99, 0.5)" stroke-width="1"/>
    <text x="409.786" y="255.202" text-anchor="middle" dominant-baseline="central" font-family="system-ui, -apple-system, sans-serif" font-size="12" fill="#eeeeee" stroke="#111111" stroke-width="2" paint-order="stroke">89,49%</text>
    <text x="357.108" y="105.186" text-anchor="middle" dominant-baseline="central" font-family="system-ui, -apple-system, sans-serif" font-size="12" fill="#eeeeee" stroke="#111111" stroke-width="2" paint-order="stroke">10,05%</text>
    <g opacity="1"><path fill="none" stroke="#777777" stroke-width="1" d="M437.843,337.025L443.032,352.160L467.032,352.160"/><text x="473.032" y="352.160" text-anchor="start" dominant-baseline="central" font-family="system-ui, -apple-system, sans-serif" font-size="12" fill="#eeeeee" stroke="#111111" stroke-width="2" paint-order="stroke">10.11</text></g>
    <g opacity="1"><path fill="none" stroke="#777777" stroke-width="1" d="M327.848,23.786L322.436,8.729L298.436,8.729"/><text x="292.436" y="8.729" text-anchor="end" dominant-baseline="central" font-family="system-ui, -apple-system, sans-serif" font-size="12" fill="#eeeeee" stroke="#111111" stroke-width="2" paint-order="stroke">10.10</text></g>
  </g>
</svg>