<svg xmlns="http://www.w3.org/2000/svg" viewBox="0 0 768 370">
  <rect width="768" height="370" fill="transparent"/>
  <g>
    <path d="M384,180 L384.000,21.000 A159,159 0 1,1 284.489,55.989 Z" fill="#3b9eff" stroke="rgba(26, 71, 114, 0.5)" stroke-width="1"/>
    <path d="M384,180 L284.489,55.989 A159,159 0 0,1 379.266,21.070 Z" fill="#ff801f" stroke="rgba(114, 57, 13, 0.5)" stroke-width="1"/>
    <path d="M384,180 L379.266,21.070 A159,159 0 0,1 382.374,21.008 Z" fill="#9a5cd0" stroke="rgba(69, 41, 93, 0.5)" stroke-width="1"/>
    <path d="M384,180 L382.374,21.008 A159,159 0 0,1 383.611,21.000 Z" fill="#33b074" stroke="rgba(22, 79, 52, 0.5)" stroke-width="1"/>
    <path d="M384,180 L383.611,21.000 A159,159 0 0,1 383.992,21.000 Z" fill="#de51a8" stroke="rgba(99, 36, 75, 0.5)" stroke-width="1"/>
    <path d="M384,180 L383.992,21.000 A159,159 0 0,1 384.000,21.000 Z" fill="#6e6ade" stroke="rgba(49, 47, 99, 0.5)" stroke-width="1"/>
    <text x="410.371" y="254.999" text-anchor="middle" dominant-baseline="central" font-family="system-ui, -apple-system, sans-serif" font-size="12" fill="#eeeeee" stroke="#111111" stroke-width="2" paint-order="stroke">89,24%</text>
    <text x="356.516" y="105.402" text-anchor="middle" dominant-baseline="central" font-family="system-ui, -apple-system, sans-serif" font-size="12" fill="#eeeeee" stroke="#111111" stroke-width="2" paint-order="stroke">10,29%</text>
    <g opacity="1"><path fill="none" stroke="#777777" stroke-width="1" d="M439.063,336.601L444.371,351.696L468.371,351.696"/><text x="474.371" y="351.696" text-anchor="start" dominant-baseline="central" font-family="system-ui, -apple-system, sans-serif" font-size="12" fill="#eeeeee" stroke="#111111" stroke-width="2" paint-order="stroke">10.11</text></g>
    <g opacity="1"><path fill="none" stroke="#777777" stroke-width="1" d="M326.611,24.236L321.080,9.222L297.080,9.222"/><text x="291.080" y="9.222" text-anchor="end" dominant-baseline="central" font-family="system-ui, -apple-system, sans-serif" font-size="12" fill="#eeeeee" stroke="#111111" stroke-width="2" paint-order="stroke">10.10</text></g>
  </g>
</svg>